<svg xmlns="http://www.w3.org/2000/svg" viewBox="0 0 411.57 97.3"><defs><style>.cls-1{fill:#26667f;}</style></defs><title>Asset 2</title><g id="Layer_2" data-name="Layer 2"><g id="Layer_1-2" data-name="Layer 1"><path class="cls-1" d="M29.54,11.58H42.4q8.93,0,14.54.29a26.07,26.07,0,0,1,8.69,1.63A8.15,8.15,0,0,1,70,18a26.16,26.16,0,0,1,1.62,8.68q.28,5.56.29,14.49v5.21H73.1V81.09h-44a28.65,28.65,0,0,1-.81,6.72,5.28,5.28,0,0,1-2.61,3.42,14.53,14.53,0,0,1-5.56,1.22q-3.64.22-9.56.23H0V41.13q0-8.93.29-14.49A26.16,26.16,0,0,1,1.91,18a8.15,8.15,0,0,1,4.4-4.46A26.07,26.07,0,0,1,15,11.87Q20.63,11.59,29.54,11.58ZM37.07,30.7c0-1.16-.11-1.83-.35-2a3.91,3.91,0,0,0-2-.29v18h2.44Z"/><path class="cls-1" d="M74.26,0H109V46.34h1.16V81.09H73c-.23-2.85-.46-5.81-.69-8.86s-.35-6-.35-8.86V61.11q0-1,.12-2.49c.07-1,.19-2.45.34-4.35s.35-4.53.58-7.93h1.28Z"/><path class="cls-1" d="M181.07,46.34h1.16V81.09H110.05c-.23-2.85-.46-5.81-.69-8.86s-.35-6-.35-8.86V61.11q0-1,.12-2.49c.08-1,.19-2.45.34-4.35s.35-4.53.58-7.93h1.28V41.13q0-8.93.29-14.49A26.16,26.16,0,0,1,113.24,18a8.12,8.12,0,0,1,4.4-4.46,26,26,0,0,1,8.69-1.63q5.63-.28,14.54-.29h10.66q8.91,0,14.54.29a26.07,26.07,0,0,1,8.69,1.63,8.15,8.15,0,0,1,4.4,4.46,26.42,26.42,0,0,1,1.62,8.68q.28,5.56.29,14.49V44H131.14a3.88,3.88,0,0,0-2,.29,3.55,3.55,0,0,0-.29,1.91Z"/><path class="cls-1" d="M183.39,11.58h34.75V55q0,7.76-.23,12.74a23.25,23.25,0,0,1-1.39,7.7,7.3,7.3,0,0,1-3.88,3.94,21.6,21.6,0,0,1-7.59,1.45c-3.24.16-7.42.23-12.51.23H182.11c-.23-2.85-.46-5.81-.69-8.86s-.35-6-.35-8.86V61.11c0-.66,0-1.49.11-2.49s.2-2.45.35-4.35.35-4.53.58-7.93h.12c.61,0,1-.1,1-.29a8.82,8.82,0,0,0,.12-2Zm0-11.58H199.6V9.27H183.39Zm18.53,0h16.22V9.27H201.92Z"/><path class="cls-1" d="M289.39,81.09H258.11q-7.77,0-12.75-.23a21.86,21.86,0,0,1-7.7-1.45,7.51,7.51,0,0,1-3.94-3.94,22.09,22.09,0,0,1-1.45-7.7Q232,62.79,232,55V41.13q0-8.93.29-14.49A26.16,26.16,0,0,1,234,18a8.15,8.15,0,0,1,4.4-4.46A26.07,26.07,0,0,1,247,11.87q5.63-.28,14.54-.29h26.65V46.34h1.16ZM242.35,0h16.22V9.27H242.35ZM247,44c-1.15,0-1.83.12-2,.35a3.8,3.8,0,0,0-.29,2h28.84V44ZM260.89,0H277.1V9.27H260.89Z"/><path class="cls-1" d="M290.54,0H325.3V46.34h1.16V81.09H289.27c-.23-2.85-.46-5.81-.7-8.86s-.34-6-.34-8.86V61.11c0-.66,0-1.49.11-2.49s.2-2.45.35-4.35.35-4.53.58-7.93h1.27Z"/><path class="cls-1" d="M358.89,46.34c1.16,0,1.84-.12,2-.35a3.91,3.91,0,0,0,.29-2h-33.6V11.58h38.81q8.93,0,14.54.29a26,26,0,0,1,8.69,1.63,8.12,8.12,0,0,1,4.4,4.46,26.16,26.16,0,0,1,1.62,8.68q.3,5.56.29,14.49V55q0,7.76-.23,12.74a21.63,21.63,0,0,1-1.45,7.7,7.53,7.53,0,0,1-3.93,3.94,21.79,21.79,0,0,1-7.65,1.45q-4.92.24-12.8.23H326.34c-.23-2.85-.46-5.81-.7-8.86s-.34-6-.34-8.86V61.11c0-.66,0-1.49.11-2.49s.2-2.45.35-4.35.35-4.53.58-7.93Z"/><path class="cls-1" d="M398.32,16.2V56.46c0,5.18-.07,9.42-.23,12.75a23.1,23.1,0,0,1-1.39,7.7,7.34,7.34,0,0,1-3.88,3.94,21.78,21.78,0,0,1-7.59,1.45q-3.47.17-8.41.21V97.3h9q7.77,0,12.63-.23a21.78,21.78,0,0,0,7.59-1.45A7.34,7.34,0,0,0,410,91.68a23.05,23.05,0,0,0,1.39-7.7q.23-5,.23-12.75v-55Z"/></g></g></svg>